<svg xmlns="http://www.w3.org/2000/svg" xmlns:xlink="http://www.w3.org/1999/xlink" version="1.1" x="0" y="0" viewBox="0 0 100 87.88" xml:space="preserve" enable-background="new 0 0 100 87.878">
  <path d="M92.42 0H7.58C3.4 0 0 3.4 0 7.58v54.55c0 4.18 3.4 7.58 7.58 7.58h28.79v4.55c0 5.85-4.76 10.61-10.61 10.61h-6.06c-0.84 0-1.51 0.68-1.51 1.52 0 0.84 0.68 1.52 1.52 1.52h60.61c0.84 0 1.52-0.68 1.52-1.51 0-0.84-0.68-1.51-1.51-1.51h-6.15c-5.85 0-10.61-4.76-10.61-10.61v-4.54h28.88c4.18 0 7.58-3.4 7.58-7.58V7.58C100 3.4 96.6 0 92.42 0zM65.59 84.85H34.32c3.09-2.5 5.07-6.33 5.07-10.61v-4.54h21.13v4.55C60.52 78.52 62.5 82.35 65.59 84.85zM96.97 62.12c0 2.51-2.04 4.55-4.54 4.55H7.58c-2.51 0-4.54-2.04-4.54-4.54V7.58c0-2.51 2.04-4.54 4.55-4.54h84.85c2.51 0 4.55 2.04 4.55 4.55V62.12z"/>
  <path d="M92.42 6.06H7.58c-0.84 0-1.51 0.68-1.51 1.52v54.55c0 0.84 0.68 1.52 1.52 1.52h84.85c0.84 0 1.52-0.68 1.52-1.51V7.58C93.94 6.74 93.26 6.06 92.42 6.06zM90.91 60.61H9.09V9.09h81.82V60.61z"/>
</svg>
