<svg version="1.1" x="0" y="0" viewBox="0 0 100 100" enable-background="new 0 0 100 100" xml:space="preserve">
  <switch>
    <g i:extraneous="self">
      <path fill="#f2ede3" d="M91.36 65.72l-3.44-12.3c-1.01-3.63-4-4.39-6.63-1.7l-8.94 9.13c-2.63 2.69-1.81 5.66 1.84 6.6l2.49 0.64c-3.63 10.91-12.62 18.51-23.26 19.86V27.75c4.75-1.46 8.21-5.89 8.21-11.12C61.64 10.22 56.42 5 50 5s-11.63 5.22-11.63 11.64c0 5.23 3.46 9.65 8.21 11.12v60.19C35.94 86.59 26.95 78.99 23.32 68.08l2.49-0.64c3.65-0.94 4.48-3.9 1.84-6.6l-8.94-9.13c-2.63-2.69-5.62-1.93-6.63 1.7L8.64 65.72c-1.01 3.63 1.14 5.83 4.79 4.89l3.25-0.83C21.51 84.92 34.76 95 50 95c15.24 0 28.49-10.09 33.32-25.21l3.25 0.83C90.21 71.55 92.37 69.35 91.36 65.72zM50 11.84c2.64 0 4.79 2.15 4.79 4.79S52.64 21.43 50 21.43c-2.64 0-4.79-2.15-4.79-4.79S47.36 11.84 50 11.84z"/>
    </g>
  </switch>
</svg>
