<svg xmlns="http://www.w3.org/2000/svg" xmlns:xlink="http://www.w3.org/1999/xlink" version="1.1" id="Layer_1" x="0" y="0" viewBox="331.1 165.57 313.54 223.88" enable-background="new 331.102 165.573 313.538 223.876" xml:space="preserve">
  <path fill="#E8E1D3" d="M493.88 328.28c-2.12 2.12-4.92 3.3-7.9 3.3 -2.99 0-5.79-1.18-7.9-3.3L332.22 182.44c-0.44 1.81-1.12 3.55-1.12 5.48v179.14c0 12.38 10.02 22.4 22.4 22.4H622.24c12.38 0 22.4-10.02 22.4-22.4V187.91c0-3.05-0.62-6.04-1.74-8.65L493.88 328.28z"/>
  <path fill="#E8E1D3" d="M485.97 304.52L624.48 166.01c-0.81-0.06-1.43-0.44-2.24-0.44H353.56c-1.93 0-3.67 0.62-5.48 1.12L485.97 304.52z"/>
</svg>