<svg viewBox="329.06 118.02 306.25 306.47" enable-background="new 329.062 118.016 306.25 306.469">
  <path fill="#E8E1D3" d="M403.88 155.75c0 20.78-16.73 37.73-37.41 37.73s-37.41-16.84-37.41-37.73c0-20.78 16.73-37.73 37.41-37.73S403.88 134.97 403.88 155.75zM398.41 220.17h-63.22v204.31h63.22V220.17zM499.47 220.17h-60.59v204.31h60.59c0 0 0-75.8 0-107.19 0-28.77 13.23-45.83 38.5-45.83 23.3 0 34.45 16.41 34.45 45.83s0 107.19 0 107.19h62.89c0 0 0-74.59 0-129.39 0-54.69-30.95-81.16-74.37-81.16 -43.31 0-61.58 33.8-61.58 33.8v-27.56H499.47z"/>
</svg>
